HIERARCHY
ROOT mixamorig:Hips
{
	OFFSET 0.000000 201.639420 0.000000
	CHANNELS 6 Xposition Yposition Zposition Xrotation Yrotation Zrotation
	JOINT mixamorig:Spine
	{
		OFFSET 0.006200 19.524994 -2.481800
		CHANNELS 3 Xrotation Yrotation Zrotation
		JOINT mixamorig:Spine1
		{
			OFFSET -0.000900 22.835007 -2.825400
			CHANNELS 3 Xrotation Yrotation Zrotation
			JOINT mixamorig:Spine2
			{
				OFFSET -0.020600 26.552490 -3.193300
				CHANNELS 3 Xrotation Yrotation Zrotation
				JOINT mixamorig:Neck
				{
					OFFSET -0.060000 30.701813 1.352200
					CHANNELS 3 Xrotation Yrotation Zrotation
					JOINT mixamorig:Head
					{
						OFFSET -0.087200 22.547607 3.670900
						CHANNELS 3 Xrotation Yrotation Zrotation
						JOINT mixamorig:HeadTop_End
						{
							OFFSET -0.830600 40.355194 7.893500
							CHANNELS 3 Xrotation Yrotation Zrotation
							End Site
							{
								OFFSET 0.000000 30.592346 0.000000
							}
						}
						JOINT mixamorig:RightEye
						{
							OFFSET -6.302100 18.118591 16.197100
							CHANNELS 3 Xrotation Yrotation Zrotation
							End Site
							{
								OFFSET 0.000000 30.592346 0.000000
							}
						}
						JOINT mixamorig:LeftEye
						{
							OFFSET 6.741500 18.382690 16.401899
							CHANNELS 3 Xrotation Yrotation Zrotation
							End Site
							{
								OFFSET 0.000000 30.592346 0.000000
							}
						}
					}
				}
				JOINT mixamorig:LeftShoulder
				{
					OFFSET 11.924900 18.230499 1.425400
					CHANNELS 3 Xrotation Yrotation Zrotation
					JOINT mixamorig:LeftArm
					{
						OFFSET 25.435989 -0.697632 -5.229300
						CHANNELS 3 Xrotation Yrotation Zrotation
						JOINT mixamorig:LeftForeArm
						{
							OFFSET 54.684776 0.000000 0.000000
							CHANNELS 3 Xrotation Yrotation Zrotation
							JOINT mixamorig:LeftHand
							{
								OFFSET 55.098175 0.000000 0.000000
								CHANNELS 3 Xrotation Yrotation Zrotation
								JOINT mixamorig:LeftHandMiddle1
								{
									OFFSET 23.369751 0.000000 0.000000
									CHANNELS 3 Xrotation Yrotation Zrotation
									JOINT mixamorig:LeftHandMiddle2
									{
										OFFSET 6.378677 0.000000 0.000000
										CHANNELS 3 Xrotation Yrotation Zrotation
										JOINT mixamorig:LeftHandMiddle3
										{
											OFFSET 6.148331 0.000000 0.000000
											CHANNELS 3 Xrotation Yrotation Zrotation
											JOINT mixamorig:LeftHandMiddle4
											{
												OFFSET 6.582504 0.000000 0.000000
												CHANNELS 3 Xrotation Yrotation Zrotation
												End Site
												{
													OFFSET -1.168900 6.395691 1.028606
												}
											}
										}
									}
								}
								JOINT mixamorig:LeftHandThumb1
								{
									OFFSET 7.235672 -3.848206 5.434273
									CHANNELS 3 Xrotation Yrotation Zrotation
									JOINT mixamorig:LeftHandThumb2
									{
										OFFSET 6.568451 -3.792297 3.792300
										CHANNELS 3 Xrotation Yrotation Zrotation
										JOINT mixamorig:LeftHandThumb3
										{
											OFFSET 6.063080 -3.500519 3.500518
											CHANNELS 3 Xrotation Yrotation Zrotation
											JOINT mixamorig:LeftHandThumb4
											{
												OFFSET 4.793182 -2.767334 2.767349
												CHANNELS 3 Xrotation Yrotation Zrotation
												End Site
												{
													OFFSET 0.101639 6.054260 1.275483
												}
											}
										}
									}
								}
								JOINT mixamorig:LeftHandIndex1
								{
									OFFSET 23.101074 -0.309540 4.992809
									CHANNELS 3 Xrotation Yrotation Zrotation
									JOINT mixamorig:LeftHandIndex2
									{
										OFFSET 6.226883 0.000000 0.000000
										CHANNELS 3 Xrotation Yrotation Zrotation
										JOINT mixamorig:LeftHandIndex3
										{
											OFFSET 6.094330 0.000000 0.000000
											CHANNELS 3 Xrotation Yrotation Zrotation
											JOINT mixamorig:LeftHandIndex4
											{
												OFFSET 5.482605 0.000000 0.000000
												CHANNELS 3 Xrotation Yrotation Zrotation
												End Site
												{
													OFFSET -1.427902 5.233032 0.797164
												}
											}
										}
									}
								}
								JOINT mixamorig:LeftHandRing1
								{
									OFFSET 22.299240 0.021149 -3.964172
									CHANNELS 3 Xrotation Yrotation Zrotation
									JOINT mixamorig:LeftHandRing2
									{
										OFFSET 6.321869 0.000000 0.000000
										CHANNELS 3 Xrotation Yrotation Zrotation
										JOINT mixamorig:LeftHandRing3
										{
											OFFSET 5.899796 0.000000 0.000000
											CHANNELS 3 Xrotation Yrotation Zrotation
											JOINT mixamorig:LeftHandRing4
											{
												OFFSET 6.517899 0.000000 0.000000
												CHANNELS 3 Xrotation Yrotation Zrotation
												End Site
												{
													OFFSET -1.637299 6.232208 0.980890
												}
											}
										}
									}
								}
								JOINT mixamorig:LeftHandPinky1
								{
									OFFSET 20.463791 -0.302338 -8.562233
									CHANNELS 3 Xrotation Yrotation Zrotation
									JOINT mixamorig:LeftHandPinky2
									{
										OFFSET 6.908646 0.000000 0.000000
										CHANNELS 3 Xrotation Yrotation Zrotation
										JOINT mixamorig:LeftHandPinky3
										{
											OFFSET 4.622849 0.000000 0.000000
											CHANNELS 3 Xrotation Yrotation Zrotation
											JOINT mixamorig:LeftHandPinky4
											{
												OFFSET 5.216080 0.000000 0.000000
												CHANNELS 3 Xrotation Yrotation Zrotation
												End Site
												{
													OFFSET -0.606308 5.116241 0.814926
												}
											}
										}
									}
								}
							}
						}
					}
				}
				JOINT mixamorig:RightShoulder
				{
					OFFSET -12.001300 18.284088 1.348900
					CHANNELS 3 Xrotation Yrotation Zrotation
					JOINT mixamorig:RightArm
					{
						OFFSET -25.308500 -0.751312 -5.164599
						CHANNELS 3 Xrotation Yrotation Zrotation
						JOINT mixamorig:RightForeArm
						{
							OFFSET -54.684429 0.000000 0.000000
							CHANNELS 3 Xrotation Yrotation Zrotation
							JOINT mixamorig:RightHand
							{
								OFFSET -55.150291 0.000000 0.000000
								CHANNELS 3 Xrotation Yrotation Zrotation
								JOINT mixamorig:RightHandMiddle1
								{
									OFFSET -23.317566 0.000000 0.000000
									CHANNELS 3 Xrotation Yrotation Zrotation
									JOINT mixamorig:RightHandMiddle2
									{
										OFFSET -6.378403 0.000000 0.000000
										CHANNELS 3 Xrotation Yrotation Zrotation
										JOINT mixamorig:RightHandMiddle3
										{
											OFFSET -6.148193 0.000000 0.000000
											CHANNELS 3 Xrotation Yrotation Zrotation
											JOINT mixamorig:RightHandMiddle4
											{
												OFFSET -6.583389 0.000000 0.000000
												CHANNELS 3 Xrotation Yrotation Zrotation
												End Site
												{
													OFFSET 1.171692 6.395905 1.029786
												}
											}
										}
									}
								}
								JOINT mixamorig:RightHandThumb1
								{
									OFFSET -7.190521 -3.860474 5.435846
									CHANNELS 3 Xrotation Yrotation Zrotation
									JOINT mixamorig:RightHandThumb2
									{
										OFFSET -6.567429 -3.791718 3.791708
										CHANNELS 3 Xrotation Yrotation Zrotation
										JOINT mixamorig:RightHandThumb3
										{
											OFFSET -6.062469 -3.500153 3.500166
											CHANNELS 3 Xrotation Yrotation Zrotation
											JOINT mixamorig:RightHandThumb4
											{
												OFFSET -4.792618 -2.767029 2.767022
												CHANNELS 3 Xrotation Yrotation Zrotation
												End Site
												{
													OFFSET -0.100327 6.053253 1.276754
												}
											}
										}
									}
								}
								JOINT mixamorig:RightHandIndex1
								{
									OFFSET -23.048981 -0.310791 4.992554
									CHANNELS 3 Xrotation Yrotation Zrotation
									JOINT mixamorig:RightHandIndex2
									{
										OFFSET -6.227539 0.000000 0.000000
										CHANNELS 3 Xrotation Yrotation Zrotation
										JOINT mixamorig:RightHandIndex3
										{
											OFFSET -6.095047 0.000000 0.000000
											CHANNELS 3 Xrotation Yrotation Zrotation
											JOINT mixamorig:RightHandIndex4
											{
												OFFSET -5.484772 0.000000 0.000000
												CHANNELS 3 Xrotation Yrotation Zrotation
												End Site
												{
													OFFSET 1.420593 5.237305 0.797056
												}
											}
										}
									}
								}
								JOINT mixamorig:RightHandRing1
								{
									OFFSET -22.246323 0.020569 -3.963762
									CHANNELS 3 Xrotation Yrotation Zrotation
									JOINT mixamorig:RightHandRing2
									{
										OFFSET -6.322128 0.000000 0.000000
										CHANNELS 3 Xrotation Yrotation Zrotation
										JOINT mixamorig:RightHandRing3
										{
											OFFSET -5.900024 0.000000 0.000000
											CHANNELS 3 Xrotation Yrotation Zrotation
											JOINT mixamorig:RightHandRing4
											{
												OFFSET -6.518356 0.000000 0.000000
												CHANNELS 3 Xrotation Yrotation Zrotation
												End Site
												{
													OFFSET 1.636398 6.232697 0.982186
												}
											}
										}
									}
								}
								JOINT mixamorig:RightHandPinky1
								{
									OFFSET -20.411011 -0.303314 -8.561701
									CHANNELS 3 Xrotation Yrotation Zrotation
									JOINT mixamorig:RightHandPinky2
									{
										OFFSET -6.907349 0.000000 0.000000
										CHANNELS 3 Xrotation Yrotation Zrotation
										JOINT mixamorig:RightHandPinky3
										{
											OFFSET -4.623840 0.000000 0.000000
											CHANNELS 3 Xrotation Yrotation Zrotation
											JOINT mixamorig:RightHandPinky4
											{
												OFFSET -5.218353 0.000000 0.000000
												CHANNELS 3 Xrotation Yrotation Zrotation
												End Site
												{
													OFFSET 0.602097 5.118835 0.816273
												}
											}
										}
									}
								}
							}
						}
					}
				}
			}
		}
	}
	JOINT mixamorig:LeftUpLeg
	{
		OFFSET 18.168400 -13.561905 -0.039000
		CHANNELS 3 Xrotation Yrotation Zrotation
		JOINT mixamorig:LeftLeg
		{
			OFFSET 0.577358 -80.825211 -3.695000
			CHANNELS 3 Xrotation Yrotation Zrotation
			JOINT mixamorig:LeftFoot
			{
				OFFSET -0.577356 -83.370262 -6.520700
				CHANNELS 3 Xrotation Yrotation Zrotation
				JOINT mixamorig:LeftToeBase
				{
					OFFSET 0.750401 -20.798306 25.135401
					CHANNELS 3 Xrotation Yrotation Zrotation
					JOINT mixamorig:LeftToe_End
					{
						OFFSET -0.000500 0.001200 19.917799
						CHANNELS 3 Xrotation Yrotation Zrotation
						End Site
						{
							OFFSET 0.000000 19.917805 0.000000
						}
					}
				}
			}
		}
	}
	JOINT mixamorig:RightUpLeg
	{
		OFFSET -18.162500 -13.585098 -0.041000
		CHANNELS 3 Xrotation Yrotation Zrotation
		JOINT mixamorig:RightLeg
		{
			OFFSET -0.595024 -80.945297 -3.631900
			CHANNELS 3 Xrotation Yrotation Zrotation
			JOINT mixamorig:RightFoot
			{
				OFFSET 0.595024 -83.218193 -6.561200
				CHANNELS 3 Xrotation Yrotation Zrotation
				JOINT mixamorig:RightToeBase
				{
					OFFSET -0.753601 -20.807106 25.115000
					CHANNELS 3 Xrotation Yrotation Zrotation
					JOINT mixamorig:RightToe_End
					{
						OFFSET 0.000299 0.001700 19.918200
						CHANNELS 3 Xrotation Yrotation Zrotation
						End Site
						{
							OFFSET 0.000000 19.918203 0.000000
						}
					}
				}
			}
		}
	}
}
MOTION
Frames: 4
Frame Time: 0.033333
-0.226815 177.579315 -1.335932 -0.252335 0.640916 -1.091633 16.586725 0.255652 0.378054 20.119536 0.469854 0.900702 12.592171 0.363280 0.922095 2.973632 -0.915431 0.127267 -21.725481 3.041513 -1.451454 0.000002 0.000000 -0.000000 0.000002 0.000000 -0.000000 0.000002 0.000000 -0.000000 20.441182 -17.628221 8.703252 -33.570199 -17.336513 -36.862271 -2.627740 -52.130954 -20.397385 -21.220745 9.297715 -12.724711 -5.683283 14.855028 -33.525919 1.498358 3.738121 -43.673206 0.329581 1.860961 -20.084590 0.000001 -0.000002 0.000000 40.085738 -0.954262 -20.751228 5.156533 21.098529 19.107589 4.782143 12.461441 21.488185 0.000001 0.000001 0.000002 18.324896 -0.102583 -38.974606 -3.927031 -9.263179 -32.256668 -5.636611 -12.207505 -12.775649 -0.000000 0.000001 -0.000002 -13.972628 19.864333 -31.046311 1.498377 3.738148 -43.673223 0.507899 2.290220 -25.004935 -0.000001 0.000002 -0.000001 -16.766405 2.966654 -36.666744 0.754035 2.756646 -30.590877 1.331784 3.555860 -41.054819 0.000001 0.000003 0.000001 18.324301 13.494520 -7.981634 -29.297185 10.275799 43.682506 -39.181739 60.008341 40.507373 -15.081105 -0.977428 14.319011 -5.683286 -14.855030 33.525919 1.498375 -3.738152 43.673210 0.329578 -1.860950 20.084584 0.000001 -0.000001 0.000001 40.085738 0.954340 20.751237 5.156559 -21.098516 -19.107598 4.782126 -12.461436 -21.488168 0.000000 -0.000000 0.000001 18.324897 0.102608 38.974613 -3.927042 9.263185 32.256668 -5.636640 12.207494 12.775655 0.000004 -0.000001 -0.000002 -13.972664 -19.864289 31.046331 1.498371 -3.738145 43.673196 0.507899 -2.290218 25.004933 -0.000002 0.000000 0.000001 -16.766405 -2.966654 36.666771 0.754021 -2.756651 30.590860 1.331790 -3.555844 41.054812 -0.000001 0.000000 0.000001 -38.804214 1.195862 25.940558 50.421334 -4.780554 -8.652530 -11.390878 -8.302035 -8.869829 -3.785909 -12.892139 -1.582416 -0.000000 -0.000000 0.000000 -42.120011 -11.491464 -22.257420 51.229192 5.644088 -2.819593 -10.595257 3.543897 11.842888 -6.191788 9.606451 11.789197 0.000000 -0.000000 0.000000 
-0.215538 177.572739 -1.299928 -0.242110 0.650588 -1.111872 16.578556 0.247426 0.381747 20.105775 0.456206 0.905732 12.578138 0.359306 0.923021 2.991813 -0.902181 0.108118 -21.739690 3.134333 -1.451581 -0.000000 -0.000000 0.000000 -0.000000 -0.000000 0.000000 -0.000000 -0.000000 0.000000 20.437960 -17.647320 8.647894 -33.568775 -17.378240 -36.775371 -2.585112 -52.140684 -20.363741 -20.975689 9.371899 -12.562559 -5.683292 14.855019 -33.525922 1.498366 3.738148 -43.673199 0.329585 1.860972 -20.084584 -0.000000 0.000002 0.000001 40.085731 -0.954258 -20.751231 5.156552 21.098518 19.107586 4.782135 12.461450 21.488163 -0.000002 0.000001 -0.000000 18.324919 -0.102577 -38.974603 -3.927035 -9.263183 -32.256654 -5.636607 -12.207498 -12.775652 -0.000001 0.000001 -0.000001 -13.972626 19.864319 -31.046318 1.498374 3.738154 -43.673217 0.507896 2.290216 -25.004940 -0.000001 0.000002 0.000000 -16.766397 2.966655 -36.666764 0.754025 2.756642 -30.590874 1.331789 3.555872 -41.054816 -0.000001 0.000003 -0.000002 18.330153 13.486436 -8.006754 -29.246392 10.250202 43.693475 -39.224912 60.034241 40.544303 -15.053346 -0.728922 14.216150 -5.863625 -14.626669 33.265361 1.498369 -3.738150 43.673213 0.329577 -1.860951 20.084584 0.000005 -0.000004 0.000001 40.113011 0.888658 20.773445 5.156564 -21.098509 -19.107596 4.782136 -12.461457 -21.488180 -0.000001 0.000000 0.000001 17.938568 0.517084 39.218960 -3.927031 9.263189 32.256661 -5.624870 12.157873 13.319496 -0.000000 0.000000 -0.000001 -14.054415 -20.288192 31.104043 1.498371 -3.738150 43.673217 0.508134 -2.290713 25.010729 -0.000001 0.000001 0.000001 -16.355779 -3.678380 37.030397 0.754043 -2.756654 30.590867 1.331774 -3.555840 41.054819 -0.000001 0.000000 -0.000000 -38.797749 1.125094 25.922462 50.453098 -4.750734 -8.643485 -11.424372 -8.274914 -8.895598 -3.785922 -12.892131 -1.582411 -0.000000 0.000000 0.000000 -42.112546 -11.496994 -22.256670 51.247104 5.609438 -2.781352 -10.617573 3.543149 11.829592 -6.191790 9.606453 11.789212 0.000000 -0.000000 0.000001 
-0.206632 177.570358 -1.266715 -0.218928 0.689719 -1.135192 16.565253 0.234357 0.387084 20.082255 0.412639 0.921712 12.554192 0.345021 0.926267 3.012554 -0.890171 0.090761 -21.763650 3.247794 -1.454314 -0.000002 0.000000 0.000000 -0.000002 0.000000 0.000000 -0.000002 0.000000 0.000000 20.435164 -17.663482 8.601086 -33.548178 -17.436759 -36.674861 -2.435286 -52.175528 -20.247741 -20.993136 9.506995 -12.268774 -5.683290 14.855011 -33.525925 1.498363 3.738146 -43.673203 0.329587 1.860961 -20.084586 0.000001 -0.000001 -0.000002 40.085742 -0.954263 -20.751245 5.156545 21.098485 19.107589 4.782147 12.461469 21.488166 0.000001 -0.000002 -0.000003 18.324897 -0.102601 -38.974620 -3.927027 -9.263179 -32.256678 -5.636600 -12.207484 -12.775649 -0.000002 0.000002 -0.000001 -13.972639 19.864314 -31.046331 1.498376 3.738162 -43.673206 0.507897 2.290210 -25.004937 -0.000001 -0.000000 0.000002 -16.766414 2.966652 -36.666757 0.754038 2.756651 -30.590863 1.331791 3.555877 -41.054816 0.000000 -0.000001 0.000003 18.338438 13.475024 -8.042141 -29.200527 10.226706 43.680651 -39.220951 60.036086 40.526487 -15.060856 -0.553650 14.180748 -6.037420 -14.399630 33.035299 1.498369 -3.738157 43.673220 0.329587 -1.860963 20.084584 0.000002 0.000002 0.000001 40.140223 0.839233 20.808009 5.156567 -21.098487 -19.107594 4.782132 -12.461452 -21.488156 -0.000001 0.000000 -0.000001 17.556412 0.931916 39.420006 -3.927030 9.263188 32.256658 -5.611583 12.104206 13.909009 0.000002 -0.000002 0.000000 -14.263415 -20.804971 31.065507 1.498373 -3.738143 43.673217 0.509064 -2.292718 25.034195 -0.000001 -0.000000 -0.000003 -15.902629 -4.402655 37.327964 0.754032 -2.756649 30.590860 1.331786 -3.555848 41.054809 0.000003 -0.000001 0.000001 -38.788002 0.995854 25.888097 50.472817 -4.707889 -8.672912 -11.447076 -8.235671 -8.910167 -3.785921 -12.892140 -1.582417 0.000000 -0.000001 0.000000 -42.103687 -11.500060 -22.253718 51.255734 5.577191 -2.743957 -10.643772 3.540356 11.824857 -6.191779 9.606451 11.789231 -0.000000 -0.000000 -0.000001 
-0.202022 177.574554 -1.233918 -0.193389 0.712819 -1.161638 16.561307 0.224827 0.391552 20.065615 0.389345 0.937762 12.537496 0.325391 0.941311 3.037995 -0.884511 0.082580 -21.781040 3.327897 -1.472940 0.000000 -0.000000 0.000000 0.000000 -0.000000 0.000000 0.000000 -0.000000 0.000000 20.433424 -17.678232 8.558276 -33.514034 -17.528866 -36.564765 -2.265649 -52.219901 -20.130743 -21.154421 9.711589 -11.884212 -5.683285 14.855013 -33.525943 1.498372 3.738147 -43.673203 0.329584 1.860958 -20.084581 0.000001 -0.000001 -0.000001 40.085766 -0.954274 -20.751240 5.156554 21.098506 19.107579 4.782162 12.461448 21.488175 0.000002 0.000001 -0.000002 18.324909 -0.102588 -38.974630 -3.927032 -9.263170 -32.256678 -5.636606 -12.207499 -12.775651 -0.000001 0.000001 -0.000000 -13.972627 19.864314 -31.046341 1.498380 3.738161 -43.673210 0.507898 2.290219 -25.004932 -0.000001 0.000001 0.000002 -16.766393 2.966653 -36.666764 0.754034 2.756651 -30.590870 1.331784 3.555862 -41.054816 -0.000001 0.000002 0.000001 18.338021 13.475567 -8.040478 -29.145995 10.144927 43.581555 -39.236961 60.094689 40.547896 -15.073676 -0.515844 14.165333 -6.205752 -14.173619 32.830131 1.498362 -3.738157 43.673220 0.329585 -1.860958 20.084588 0.000001 -0.000002 -0.000001 40.154388 0.830678 20.839247 5.156558 -21.098500 -19.107591 4.782131 -12.461448 -21.488175 0.000000 -0.000001 -0.000000 17.159592 1.394426 39.531858 -3.927004 9.263195 32.256658 -5.596833 12.047309 14.535611 0.000005 -0.000001 0.000001 -14.620250 -21.296188 30.912313 1.498376 -3.738148 43.673206 0.509876 -2.294453 25.054467 0.000000 -0.000001 0.000003 -15.414991 -5.136888 37.573588 0.754042 -2.756648 30.590860 1.331779 -3.555843 41.054809 -0.000002 -0.000001 0.000001 -38.775554 0.871215 25.851457 50.490005 -4.681611 -8.697964 -11.476124 -8.180197 -8.919648 -3.785924 -12.892127 -1.582415 0.000001 0.000000 -0.000000 -42.079481 -11.483298 -22.245822 51.233013 5.549113 -2.703605 -10.652798 3.536753 11.837078 -6.191789 9.606454 11.789206 -0.000000 -0.000000 0.000001 
